{"title":"Winners &amp; Losers - S05E11 - iBloom","uid":15777330,"size":364703818,"categoryP":"video","categoryS":"tv_shows","magnet":"?xt=urn:btih:d2d45c55b870c705c7b57e5d7c82b529e3971bee&amp;dn=Winners+%26amp%3B+Losers+-+S05E11+-+iBloom&amp;tr=udp%3A%2F%2Ftracker.leechers-paradise.org%3A6969&amp;tr=udp%3A%2F%2Fzer0day.ch%3A1337&amp;tr=udp%3A%2F%2Fopen.demonii.com%3A1337&amp;tr=udp%3A%2F%2Ftracker.coppersurfer.tk%3A6969&amp;tr=udp%3A%2F%2Fexodus.desync.com%3A6969","seeders":5,"leechers":1,"uploader":"Bullrout","files":1,"time":1473248612,"description":"Winners &amp; Losers - S05E11 - iBloom\r\n\r\nFrances' blase attitude to the celebration of milestones is revealed to be a poor attempt to cover her nerves about attending Pete's parents' 40th wedding anniversary.\r\n\r\nComplete name                            : Winners &amp; Losers - S05E11 - iBloom.mp4\r\nFormat                                   : MPEG-4\r\nFormat profile                           : Base Media / Version 2\r\nCodec ID                                 : mp42 (mp42/isom/avc1)\r\nFile size                                : 348 MiB\r\nDuration                                 : 43mn 39s\r\nOverall bit rate mode                    : Variable\r\nOverall bit rate                         : 1 114 Kbps\r\n\r\nVideo\r\nID                                       : 2\r\nFormat                                   : AVC\r\nFormat/Info                              : Advanced Video Codec\r\nFormat profile                           :   \r\nFormat settings, CABAC                   : Yes\r\nFormat settings, ReFrames                : 3 frames\r\nCodec ID                                 : avc1\r\nCodec ID/Info                            : Advanced Video Coding\r\nDuration                                 : 43mn 39s\r\nBit rate mode                            : Variable\r\nBit rate                                 : 982 Kbps\r\nMaximum bit rate                         : 1 000 Kbps\r\nWidth                                    : 720 pixels\r\nHeight                                   : 404 pixels\r\nDisplay aspect ratio                     : 16:9\r\nOriginal display aspect ratio            : 16:9\r\nFrame rate mode                          : Constant\r\nFrame rate                               : 25.000 fps\r\nStandard                                 : PAL\r\nColor space                              : YUV\r\nChroma subsampling                       : 4:2:0\r\nBit depth                                : 8 bits\r\nScan type                                : Progressive\r\nBits/(Pixel*Frame)                       : 0.135\r\nStream size                              : 307 MiB (88%)\r\nWriting library                          : x264 core 112\r\nColor range                              : Limited\r\nColor primaries                          : BT.601 PAL\r\nTransfer characteristics                 : BT.470 System B, BT.470 System G\r\nMatrix coefficients                      : BT.601\r\n\r\nAudio\r\nID                                       : 1\r\nFormat                                   : AAC\r\nFormat/Info                              : Advanced Audio Codec\r\nFormat profile                           : LC\r\nCodec ID                                 : 40\r\nDuration                                 : 43mn 39s\r\nBit rate mode                            : Variable\r\nBit rate                                 : 128 Kbps\r\nMaximum bit rate                         : 576 Kbps\r\nChannel(s)                               : 2 channels\r\nChannel positions                        : Front: L R\r\nSampling rate                            : 48.0 KHz\r\nFrame rate                               : 46.875 fps (1024 spf)\r\nCompression mode                         : Lossy\r\nStream size                              : 40.0 MiB (11%)","torrent":{"xt":"urn:btih:d2d45c55b870c705c7b57e5d7c82b529e3971bee","amp;dn":"Winners+%26amp%3B+Losers+-+S05E11+-+iBloom","amp;tr":["udp%3A%2F%2Ftracker.leechers-paradise.org%3A6969","udp%3A%2F%2Fzer0day.ch%3A1337","udp%3A%2F%2Fopen.demonii.com%3A1337","udp%3A%2F%2Ftracker.coppersurfer.tk%3A6969","udp%3A%2F%2Fexodus.desync.com%3A6969"],"infoHash":"d2d45c55b870c705c7b57e5d7c82b529e3971bee","infoHashBuffer":{"type":"Buffer","data":[210,212,92,85,184,112,199,5,199,181,126,93,124,130,181,41,227,151,27,238]},"announce":[],"urlList":[]}}